<?xml version="1.0" encoding="utf-8"?>
<!-- Generator: Adobe Illustrator 22.0.1, SVG Export Plug-In . SVG Version: 6.00 Build 0)  -->
<svg version="1.1" id="Layer_1" xmlns="http://www.w3.org/2000/svg" xmlns:xlink="http://www.w3.org/1999/xlink" x="0px" y="0px"
	 viewBox="0 0 69.7 51.7" style="enable-background:new 0 0 69.7 51.7;" xml:space="preserve">
<style type="text/css">
	.st0{fill:#1F252D;}
</style>
<g id="Group_72" transform="translate(0 70)">
	<path id="Path_24" class="st0" d="M24-49.9c0.5,0,1-0.4,1-1c0-0.5-0.4-1-1-1c-0.5,0-1,0.4-1,1c0,0.3,0.1,0.5,0.3,0.7
		C23.5-50,23.8-49.9,24-49.9z"/>
	<path id="Path_25" class="st0" d="M26.5-49.9c0.5,0,1-0.4,1-1c0-0.5-0.4-1-1-1c-0.5,0-1,0.4-1,1c0,0.3,0.1,0.5,0.3,0.7
		C26-50,26.2-49.9,26.5-49.9z"/>
	<path id="Path_26" class="st0" d="M28.9-49.9c0.5,0,1-0.4,1-1c0-0.5-0.4-1-1-1c-0.5,0-1,0.4-1,1c0,0.3,0.1,0.5,0.3,0.7
		C28.4-50,28.7-49.9,28.9-49.9z"/>
	<path id="Path_27" class="st0" d="M24.8-43h6.3c0.5,0,1-0.4,1-1s-0.4-1-1-1h-6.3c-0.5,0-1,0.4-1,1S24.3-43,24.8-43z"/>
	<path id="Path_28" class="st0" d="M31.1-41.4h-6.3c-0.5,0-1,0.4-1,1c0,0.5,0.4,1,1,1h6.3c0.5,0,1-0.4,1-1
		C32.1-40.9,31.7-41.4,31.1-41.4L31.1-41.4z"/>
	<path id="Path_29" class="st0" d="M31.1-37.8h-6.3c-0.5,0-1,0.4-1,1c0,0.5,0.4,1,1,1h6.3c0.5,0,1-0.4,1-1
		C32.1-37.4,31.7-37.8,31.1-37.8L31.1-37.8z"/>
	<path id="Path_23" class="st0" d="M62.3-54.8H49.6v-9.5c0-0.5-0.4-1-1-1H7.3c-0.5,0-1,0.4-1,1v29.8c0,0.5,0.4,1,1,1c0,0,0,0,0,0H20
		v9.5c0,0.5,0.4,1,1,1c0,0,0,0,0,0h41.3c0.5,0,1-0.4,1-1l0,0v-29.7C63.3-54.3,62.9-54.8,62.3-54.8L62.3-54.8z M61.4-48.9H22v-3.9
		h39.4V-48.9z M47.7-63.3v3.9H8.3v-3.9H47.7z M8.3-35.6v-21.9h39.4v2.7H21c-0.5,0-1,0.4-1,1l0,0v18.2H8.3z M22-47h11.9V-25H22V-47z
		 M35.9-25V-47h25.5V-25H35.9z"/>
	<path id="Path_30" class="st0" d="M53.3-44.9H38.5c-0.5,0-1,0.4-1,1s0.4,1,1,1l0,0h14.8c0.5,0,1-0.4,1-1S53.9-44.9,53.3-44.9z"/>
	<path id="Path_31" class="st0" d="M53.3-41.4H38.5c-0.5,0-1,0.4-1,1c0,0.5,0.4,1,1,1l0,0h14.8c0.5,0,1-0.4,1-1
		C54.3-40.9,53.9-41.4,53.3-41.4z"/>
	<path id="Path_32" class="st0" d="M53.3-37.8H38.5c-0.5,0-1,0.4-1,1c0,0.5,0.4,1,1,1l0,0h14.8c0.5,0,1-0.4,1-1
		C54.3-37.4,53.9-37.8,53.3-37.8z"/>
	<path id="Path_33" class="st0" d="M10.4-60.4c0.5,0,1-0.4,1-1c0-0.5-0.4-1-1-1c-0.5,0-1,0.4-1,1c0,0.3,0.1,0.5,0.3,0.7
		C9.8-60.5,10.1-60.4,10.4-60.4z"/>
	<path id="Path_34" class="st0" d="M12.8-60.4c0.5,0,1-0.4,1-1c0-0.5-0.4-1-1-1c-0.5,0-1,0.4-1,1c0,0.3,0.1,0.5,0.3,0.7
		C12.3-60.5,12.5-60.4,12.8-60.4z"/>
	<path id="Path_35" class="st0" d="M15.2-60.4c0.5,0,1-0.4,1-1c0-0.5-0.4-1-1-1c-0.5,0-1,0.4-1,1c0,0.3,0.1,0.5,0.3,0.7
		C14.7-60.5,15-60.4,15.2-60.4z"/>
	<path id="Path_36" class="st0" d="M17.4-55.5h-6.3c-0.5,0-1,0.4-1,1s0.4,1,1,1h6.3c0.5,0,1-0.4,1-1S18-55.5,17.4-55.5z"/>
	<path id="Path_37" class="st0" d="M17.4-51.9h-6.3c-0.5,0-1,0.4-1,1s0.4,1,1,1h6.3c0.5,0,1-0.4,1-1S18-51.9,17.4-51.9z"/>
	<path id="Path_38" class="st0" d="M17.4-48.4h-6.3c-0.5,0-1,0.4-1,1s0.4,1,1,1h6.3c0.5,0,1-0.4,1-1S18-48.4,17.4-48.4z"/>
</g>
</svg>
