<?xml version="1.0" encoding="utf-8"?>
<!-- Generator: Adobe Illustrator 22.0.1, SVG Export Plug-In . SVG Version: 6.00 Build 0)  -->
<svg version="1.1" id="Layer_1" xmlns="http://www.w3.org/2000/svg" xmlns:xlink="http://www.w3.org/1999/xlink" x="0px" y="0px"
	 viewBox="0 0 59.7 54" style="enable-background:new 0 0 59.7 54;" xml:space="preserve">
<style type="text/css">
	.st0{fill:#1F252D;}
</style>
<g id="Group_72" transform="translate(0 70)">
	<path id="Path_24" class="st0" d="M19-48.7c0.5,0,1-0.4,1-1c0-0.5-0.4-1-1-1c-0.5,0-1,0.4-1,1c0,0.3,0.1,0.5,0.3,0.7
		C18.5-48.8,18.8-48.7,19-48.7z"/>
	<path id="Path_25" class="st0" d="M21.5-48.7c0.5,0,1-0.4,1-1c0-0.5-0.4-1-1-1c-0.5,0-1,0.4-1,1c0,0.3,0.1,0.5,0.3,0.7
		C21-48.8,21.2-48.7,21.5-48.7z"/>
	<path id="Path_26" class="st0" d="M23.9-48.7c0.5,0,1-0.4,1-1c0-0.5-0.4-1-1-1c-0.5,0-1,0.4-1,1c0,0.3,0.1,0.5,0.3,0.7
		C23.4-48.8,23.7-48.7,23.9-48.7z"/>
	<path id="Path_27" class="st0" d="M19.8-41.8h6.3c0.5,0,1-0.4,1-1s-0.4-1-1-1h-6.3c-0.5,0-1,0.4-1,1S19.3-41.8,19.8-41.8z"/>
	<path id="Path_28" class="st0" d="M26.1-40.2h-6.3c-0.5,0-1,0.4-1,1c0,0.5,0.4,1,1,1h6.3c0.5,0,1-0.4,1-1
		C27.1-39.7,26.7-40.2,26.1-40.2L26.1-40.2z"/>
	<path id="Path_29" class="st0" d="M26.1-36.6h-6.3c-0.5,0-1,0.4-1,1c0,0.5,0.4,1,1,1h6.3c0.5,0,1-0.4,1-1
		C27.1-36.2,26.7-36.6,26.1-36.6L26.1-36.6z"/>
	<path id="Path_23" class="st0" d="M57.3-53.6H44.6v-9.5c0-0.5-0.4-1-1-1H2.3c-0.5,0-1,0.4-1,1v29.8c0,0.5,0.4,1,1,1l0,0H15v9.5
		c0,0.5,0.4,1,1,1l0,0h41.3c0.5,0,1-0.4,1-1l0,0v-29.7C58.3-53.1,57.9-53.6,57.3-53.6L57.3-53.6z M56.4-47.7H17v-3.9h39.4V-47.7z
		 M42.7-62.1v3.9H3.3v-3.9H42.7z M3.3-34.4v-21.9h39.4v2.7H16c-0.5,0-1,0.4-1,1l0,0v18.2H3.3z M17-45.8h11.9v22H17V-45.8z
		 M30.9-23.8v-22h25.5v22H30.9z"/>
	<path id="Path_30" class="st0" d="M48.3-43.7H33.5c-0.5,0-1,0.4-1,1s0.4,1,1,1l0,0h14.8c0.5,0,1-0.4,1-1S48.9-43.7,48.3-43.7z"/>
	<path id="Path_31" class="st0" d="M48.3-40.2H33.5c-0.5,0-1,0.4-1,1c0,0.5,0.4,1,1,1l0,0h14.8c0.5,0,1-0.4,1-1
		C49.3-39.7,48.9-40.2,48.3-40.2z"/>
	<path id="Path_32" class="st0" d="M48.3-36.6H33.5c-0.5,0-1,0.4-1,1c0,0.5,0.4,1,1,1l0,0h14.8c0.5,0,1-0.4,1-1
		C49.3-36.2,48.9-36.6,48.3-36.6z"/>
	<path id="Path_33" class="st0" d="M5.4-59.2c0.5,0,1-0.4,1-1c0-0.5-0.4-1-1-1c-0.5,0-1,0.4-1,1c0,0.3,0.1,0.5,0.3,0.7
		C4.8-59.3,5.1-59.2,5.4-59.2z"/>
	<path id="Path_34" class="st0" d="M7.8-59.2c0.5,0,1-0.4,1-1c0-0.5-0.4-1-1-1c-0.5,0-1,0.4-1,1c0,0.3,0.1,0.5,0.3,0.7
		S7.5-59.2,7.8-59.2z"/>
	<path id="Path_35" class="st0" d="M10.2-59.2c0.5,0,1-0.4,1-1c0-0.5-0.4-1-1-1c-0.5,0-1,0.4-1,1c0,0.3,0.1,0.5,0.3,0.7
		C9.7-59.3,10-59.2,10.2-59.2z"/>
	<path id="Path_36" class="st0" d="M12.4-54.3H6.1c-0.5,0-1,0.4-1,1s0.4,1,1,1h6.3c0.5,0,1-0.4,1-1S13-54.3,12.4-54.3z"/>
	<path id="Path_37" class="st0" d="M12.4-50.7H6.1c-0.5,0-1,0.4-1,1s0.4,1,1,1h6.3c0.5,0,1-0.4,1-1S13-50.7,12.4-50.7z"/>
	<path id="Path_38" class="st0" d="M12.4-47.2H6.1c-0.5,0-1,0.4-1,1s0.4,1,1,1h6.3c0.5,0,1-0.4,1-1S13-47.2,12.4-47.2z"/>
</g>
</svg>
