<?xml version="1.0" encoding="iso-8859-1"?>
<!-- Generator: Adobe Illustrator 19.0.0, SVG Export Plug-In . SVG Version: 6.00 Build 0)  -->
<svg xmlns="http://www.w3.org/2000/svg" xmlns:xlink="http://www.w3.org/1999/xlink" version="1.1" id="Capa_1" x="0px" y="0px" viewBox="0 0 480.033 480.033" style="enable-background:new 0 0 480.033 480.033;" xml:space="preserve" width="512px" height="512px">
<g>
	<g>
		<g>
			<path d="M461.221,301.681l-11.28-11.36c-15.682-15.57-40.997-15.545-56.648,0.056l-74.088,75.464     c-4.658-17.557-20.539-29.788-38.704-29.808h-53.432c-9.244-19.553-28.94-32.016-50.568-32h-40     c-15.067-0.004-29.494,6.088-40,16.888v-24.888c0-4.418-3.582-8-8-8h-64c-4.418,0-8,3.582-8,8v176c0,4.418,3.582,8,8,8h64     c4.418,0,8-3.582,8-8v-16l218.152,0.152c2.122,0,4.156-0.844,5.656-2.344l140.88-140.88     C464.3,309.849,464.314,304.81,461.221,301.681z M80.501,464.033h-48v-160h48V464.033z M311.341,440.193l-214.84-0.16v-80     c0.026-22.08,17.92-39.974,40-40h40c16.936-0.033,32.04,10.651,37.648,26.632c1.12,3.213,4.149,5.367,7.552,5.368h58.8     c13.255,0,24,10.745,24,24h-120v16h128v-0.072c2.138,0.021,4.194-0.815,5.712-2.32l86.4-88c9.39-9.34,24.556-9.358,33.968-0.04     l5.656,5.704L311.341,440.193z" fill="#1f252d"/>
			<rect x="40.501" y="320.033" width="16" height="16" fill="#1f252d"/>
			<path d="M288.501,96.033c-4.418,0-8-3.582-8-8h-16c0.042,10.134,6.445,19.15,16,22.528v9.472h16v-9.472     c12.473-4.393,19.023-18.066,14.629-30.539c-3.38-9.596-12.455-16.009-22.629-15.989c-4.418,0-8-3.582-8-8s3.582-8,8-8     s8,3.582,8,8h16c-0.042-10.134-6.445-19.15-16-22.528v-9.472h-16v9.472c-12.473,4.393-19.023,18.066-14.629,30.539     c3.38,9.596,12.455,16.009,22.629,15.989c4.418,0,8,3.582,8,8S292.919,96.033,288.501,96.033z" fill="#1f252d"/>
			<path d="M280.501,143.561v16.72c-7.487-10.184-19.36-16.213-32-16.248h-16c-4.418,0-8,3.582-8,8v16     c0.026,22.08,17.92,39.974,40,40h16v32h-48c-4.418,0-8,3.582-8,8c0,0.655,0.081,1.308,0.24,1.944l16,64     c0.892,3.559,4.091,6.056,7.76,6.056h80c3.669,0,6.868-2.497,7.76-6.056l16-64c1.074-4.286-1.53-8.631-5.816-9.704     c-0.636-0.159-1.288-0.24-1.944-0.24h-48v-16h16c22.08-0.026,39.974-17.92,40-40v-16c0-4.418-3.582-8-8-8h-16     c-12.64,0.035-24.513,6.064-32,16.248v-32.72c39.518-4.418,67.972-40.036,63.554-79.554     c-4.418-39.518-40.036-67.972-79.554-63.554c-39.518,4.418-67.972,40.036-63.554,79.554     C220.685,113.436,247.071,139.823,280.501,143.561z M272.501,192.033h-8c-13.255,0-24-10.745-24-24v-8h8     c13.255,0,24,10.745,24,24V192.033z M304.501,200.033c0-13.255,10.745-24,24-24h8v8c0,13.255-10.745,24-24,24h-8V200.033z      M334.253,256.033l-12,48h-67.504l-12-48H334.253z M288.501,16.033c30.928,0,56,25.072,56,56s-25.072,56-56,56     c-30.928,0-56-25.072-56-56C232.536,41.119,257.588,16.068,288.501,16.033z" fill="#1f252d"/>
			<rect x="320.501" y="64.033" width="16" height="16" fill="#1f252d"/>
			<rect x="240.501" y="64.033" width="16" height="16" fill="#1f252d"/>
		</g>
	</g>
</g>
<g>
</g>
<g>
</g>
<g>
</g>
<g>
</g>
<g>
</g>
<g>
</g>
<g>
</g>
<g>
</g>
<g>
</g>
<g>
</g>
<g>
</g>
<g>
</g>
<g>
</g>
<g>
</g>
<g>
</g>
</svg>
