<?xml version="1.0" standalone="no"?>
<!DOCTYPE svg PUBLIC "-//W3C//DTD SVG 20010904//EN"
 "http://www.w3.org/TR/2001/REC-SVG-20010904/DTD/svg10.dtd">
<svg version="1.0" xmlns="http://www.w3.org/2000/svg"
 width="694.000000pt" height="694.000000pt" viewBox="0 0 694.000000 694.000000"
 preserveAspectRatio="xMidYMid meet">
<metadata>
Created by potrace 1.11, written by Peter Selinger 2001-2013
</metadata>
<g transform="translate(0.000000,694.000000) scale(0.100000,-0.100000)"
fill="#000000" stroke="none">
<path d="M3338 6470 c-259 -43 -484 -209 -595 -440 -64 -132 -77 -191 -77
-355 -1 -148 8 -201 52 -315 90 -231 311 -418 552 -466 87 -18 127 -22 200
-22 471 0 813 344 810 813 -1 220 -92 432 -246 575 -149 139 -323 208 -534
214 -63 2 -136 0 -162 -4z"/>
<path d="M2749 4545 c-1 -12 0 -3946 0 -4030 l1 -60 722 1 723 1 3 2049 2
2049 -725 0 c-479 0 -725 -3 -726 -10z"/>
</g>
</svg>
